<?xml version="1.0" encoding="utf-8"?>
<!-- Generator: Adobe Illustrator 17.1.0, SVG Export Plug-In . SVG Version: 6.00 Build 0)  -->
<!DOCTYPE svg PUBLIC "-//W3C//DTD SVG 1.1//EN" "http://www.w3.org/Graphics/SVG/1.1/DTD/svg11.dtd">
<svg version="1.1" id="Layer_1" xmlns="http://www.w3.org/2000/svg" xmlns:xlink="http://www.w3.org/1999/xlink" x="0px" y="0px"
	 viewBox="0 0 18 18" enable-background="new 0 0 18 18" xml:space="preserve">
<path fill="#FFFFFF" d="M5.8,0.1l0.8,1.4C5.1,2.3,4.1,3.8,4.1,5.4H9h4.8c0-1.7-1-3.1-2.5-3.9l0.8-1.4c0,0,0-0.1,0-0.1
	c-0.1,0-0.1,0-0.1,0l-0.8,1.5C10.4,1.2,9.7,1.1,9,1.1c-0.8,0-1.5,0.2-2.1,0.4L6,0c0,0,0-0.1-0.1,0C5.8,0.1,5.8,0.1,5.8,0.1L5.8,0.1z
	 M6.7,2.9c0.3,0,0.5,0.2,0.5,0.5c0,0.3-0.2,0.5-0.5,0.5S6.2,3.6,6.2,3.4S6.4,2.9,6.7,2.9z M11.3,2.9c0.3,0,0.5,0.2,0.5,0.5
	c0,0.3-0.2,0.5-0.5,0.5s-0.5-0.2-0.5-0.5S11,2.9,11.3,2.9z"/>
<path fill="#FFFFFF" d="M4.1,6v7.3c0,0.4,0.4,0.8,0.8,0.8H6v2.5c0,0.6,0.5,1.2,1,1.2c0.6,0,1-0.5,1-1.2v-2.5h1.7v2.5
	c0,0.6,0.5,1.2,1,1.2c0.6,0,1-0.5,1-1.2v-2.5H13c0.4,0,0.8-0.5,0.8-0.8V6H4.1L4.1,6z"/>
<path fill="#FFFFFF" d="M2.5,5.8L2.5,5.8c0.6,0,1,0.5,1,1.2v4.4c0,0.6-0.5,1.2-1,1.2l0,0c-0.6,0-1-0.5-1-1.2V7
	C1.4,6.4,1.9,5.8,2.5,5.8z"/>
<path fill="#FFFFFF" d="M15.4,5.8L15.4,5.8c0.6,0,1,0.5,1,1.2v4.4c0,0.6-0.5,1.2-1,1.2h0c-0.6,0-1-0.5-1-1.2V7
	C14.4,6.4,14.9,5.8,15.4,5.8z"/>
</svg>
