<svg id="Layer_1" data-name="Layer 1" xmlns="http://www.w3.org/2000/svg" viewBox="0 0 48 48"><defs><style>.cls-1{fill:#83ddc5;}.cls-2{fill:#fff;}.cls-3{fill:#4f81ff;}</style></defs><circle class="cls-1" cx="24" cy="24" r="20"/><path class="cls-2" d="M32.54,24.25l-1.09-1.08a1.21,1.21,0,0,1,.24-1.9,25.73,25.73,0,0,0,3.75-2.7,3,3,0,0,0-4.25-4.25,24.51,24.51,0,0,0-2.71,3.75,1.22,1.22,0,0,1-1.9.23L25.5,17.22a3.48,3.48,0,0,0-4.92,0l-1.93,1.92,12,12,1.93-1.92A3.51,3.51,0,0,0,32.54,24.25Z"/><path class="cls-3" d="M15.55,22.24l0,0a3,3,0,0,1-4.26-.14l-.6-.6a.46.46,0,0,0-.65.65l.32.33,2.28,2.28.2.2,8.47,8.47a4.92,4.92,0,0,0,7,0l2.89-2.89-12-12Z"/><circle class="cls-1" cx="33.08" cy="16.69" r="1.18"/><path class="cls-3" d="M18.27,42.36a4.64,4.64,0,1,1-9.27,0c0-2.56,4.64-8.11,4.64-8.11S18.27,39.8,18.27,42.36Z"/></svg>