<svg width="48" height="48" viewBox="0 0 48 48" fill="none" xmlns="http://www.w3.org/2000/svg">
<path d="M24 44C35.0457 44 44 35.0457 44 24C44 12.9543 35.0457 4 24 4C12.9543 4 4 12.9543 4 24C4 35.0457 12.9543 44 24 44Z" fill="#4F81FF"/>
<path d="M30.56 11H17.44C16.3686 11 15.5 11.8686 15.5 12.94V35.06C15.5 36.1314 16.3686 37 17.44 37H30.56C31.6314 37 32.5 36.1314 32.5 35.06V12.94C32.5 11.8686 31.6314 11 30.56 11Z" fill="#2F3136"/>
<path d="M30.61 13H17.39V35H30.61V13Z" fill="#2F3136"/>
<path d="M25.51 26.42L26 27C26.4246 27.0094 26.8451 26.915 27.225 26.7251C27.6049 26.5351 27.9327 26.2554 28.18 25.91C28.1663 24.4655 27.8243 23.043 27.18 21.75C26.6068 21.2995 25.9081 21.0375 25.18 21L25.08 21.11C25.7267 21.2874 26.3294 21.5973 26.85 22.02C26.1871 21.6494 25.4555 21.418 24.7 21.34C24.2219 21.2797 23.7381 21.2797 23.26 21.34H23.1C22.54 21.4055 21.9935 21.5573 21.48 21.79L21.06 22C21.6113 21.5544 22.2527 21.2337 22.94 21.06L22.86 21C22.1319 21.0375 21.4332 21.2995 20.86 21.75C20.2157 23.043 19.8737 24.4655 19.86 25.91C20.1022 26.251 20.4233 26.5282 20.796 26.718C21.1687 26.9078 21.5818 27.0046 22 27L22.48 26.41C21.9756 26.284 21.5326 25.9827 21.23 25.56L21.43 25.69H21.5C21.68 25.79 21.86 25.87 22.02 25.94C22.3608 26.0697 22.7121 26.17 23.07 26.24C23.6813 26.3551 24.3087 26.3551 24.92 26.24C25.2879 26.2012 25.6502 26.1207 26 26C26.2877 25.8901 26.5626 25.7492 26.82 25.58C26.4971 26.0069 26.0327 26.3047 25.51 26.42V26.42ZM22.66 25.25C22.4991 25.2641 22.3377 25.2292 22.197 25.1499C22.0564 25.0706 21.943 24.9505 21.8718 24.8055C21.8007 24.6605 21.7751 24.4974 21.7984 24.3376C21.8217 24.1778 21.8928 24.0288 22.0025 23.9101C22.1121 23.7915 22.255 23.7089 22.4125 23.673C22.57 23.6372 22.7346 23.6498 22.8847 23.7093C23.0349 23.7688 23.1635 23.8724 23.2537 24.0064C23.3439 24.1404 23.3914 24.2985 23.39 24.46C23.394 24.5598 23.3783 24.6595 23.3438 24.7532C23.3092 24.847 23.2566 24.933 23.1888 25.0064C23.121 25.0797 23.0394 25.139 22.9486 25.1808C22.8579 25.2226 22.7598 25.2461 22.66 25.25V25.25ZM25.27 25.25C25.1091 25.2641 24.9477 25.2292 24.807 25.1499C24.6664 25.0706 24.553 24.9505 24.4818 24.8055C24.4107 24.6605 24.3851 24.4974 24.4084 24.3376C24.4317 24.1778 24.5028 24.0288 24.6125 23.9101C24.7221 23.7915 24.865 23.7089 25.0225 23.673C25.18 23.6372 25.3446 23.6498 25.4947 23.7093C25.6449 23.7688 25.7735 23.8724 25.8637 24.0064C25.9539 24.1404 26.0014 24.2985 26 24.46C26.0055 24.6609 25.9322 24.856 25.7958 25.0036C25.6594 25.1512 25.4707 25.2396 25.27 25.25V25.25Z" fill="#2F3136"/>
<path d="M30.56 11H17.44C16.3686 11 15.5 11.8686 15.5 12.94V35.06C15.5 36.1314 16.3686 37 17.44 37H30.56C31.6314 37 32.5 36.1314 32.5 35.06V12.94C32.5 11.8686 31.6314 11 30.56 11Z" fill="#FFD836"/>
<path d="M30.22 13H17V35H30.22V13Z" fill="white"/>
<path fill-rule="evenodd" clip-rule="evenodd" d="M26.7758 21.5033C26.2495 21.2641 25.6947 21.0957 25.1257 21C25.0481 21.1386 24.9769 21.2805 24.9141 21.4258C24.3086 21.3367 23.6915 21.3367 23.0856 21.4258C23.0212 21.2805 22.9504 21.1386 22.8729 21.0016C22.3018 21.0974 21.7471 21.2657 21.2208 21.505C20.1745 23.0349 19.8922 24.5285 20.0342 25.9989C20.6465 26.4462 21.3311 26.7862 22.059 27.004C22.2226 26.7862 22.3678 26.5535 22.4917 26.3108C22.2554 26.2234 22.0262 26.1161 21.8083 25.9874C21.8662 25.9461 21.9222 25.9049 21.9766 25.8586C23.2588 26.4561 24.7409 26.4561 26.0235 25.8586C26.0779 25.9032 26.1339 25.9461 26.1899 25.9874C25.9723 26.1145 25.7427 26.2234 25.5068 26.3108C25.6324 26.5535 25.7759 26.7845 25.9391 27.0024C26.667 26.7845 27.3517 26.4445 27.9639 25.9973H27.9659C28.1323 24.2941 27.682 22.8154 26.7758 21.5033ZM22.6709 25.0942C22.2762 25.0942 21.951 24.7361 21.951 24.3004C21.951 23.8647 22.2682 23.5066 22.6709 23.5066C23.0736 23.5066 23.3968 23.8647 23.3904 24.3004C23.3904 24.7361 23.0716 25.0942 22.6709 25.0942ZM25.328 25.0942C24.9333 25.0942 24.6081 24.7361 24.6081 24.3004C24.6081 23.8647 24.9269 23.5066 25.328 23.5066C25.7287 23.5066 26.0539 23.8647 26.0475 24.3004C26.0475 24.7361 25.7287 25.0942 25.328 25.0942Z" fill="#4F81FF"/>
<path d="M41 18C44.866 18 48 14.866 48 11C48 7.13401 44.866 4 41 4C37.134 4 34 7.13401 34 11C34 14.866 37.134 18 41 18Z" fill="#F47FFF"/>
<path d="M42.2607 13.9V6.64935H40.6649L38.8121 7.50615L39.0156 8.89845L40.4614 8.33082V13.9H42.2607Z" fill="white"/>
</svg>
