<svg id="Layer_1" data-name="Layer 1" xmlns="http://www.w3.org/2000/svg" viewBox="0 0 48 48"><defs><style>.cls-1{fill:#ffde4d;}.cls-2{fill:#4f81ff;}.cls-3{fill:#f2f3f4;}.cls-4{fill:#bed3ff;}.cls-5{fill:#f47fff;}</style></defs><circle class="cls-1" cx="24" cy="24" r="20"/><rect class="cls-2" x="0.23" y="25.31" width="31.77" height="12.2" rx="6.1"/><circle class="cls-3" cx="16.11" cy="31.41" r="3.2"/><circle class="cls-4" cx="6.8" cy="31.41" r="3.2"/><circle class="cls-4" cx="25.43" cy="31.41" r="3.2"/><rect class="cls-5" x="21.95" y="11" width="26.05" height="10" rx="5"/><path class="cls-3" d="M35.05,19.38v-6.5H33.43v2.46H31.18V12.88H29.57v6.5h1.61V16.74h2.25v2.64Zm2.63-6a.81.81,0,0,0-1.62,0,.81.81,0,0,0,1.62,0Zm-.1,6V14.77H36.15v4.61Zm2.79-6.5H38.61l.46,4.26.86-.19Zm-.12,6.5V17.76H38.72v1.62Z"/></svg>