<svg xmlns="http://www.w3.org/2000/svg" width="114" height="54" xmlns:xlink="http://www.w3.org/1999/xlink">
  <defs>
    <path id="a" d="M0 2.8799473C4.54732295 6.42804994 10.9310111 8.6352 18.0002 8.6352c7.0688913 0 13.4525949-2.20680597 17.9998-5.75466652V.6352H0v2.2447473z"/>
    <path id="c" d="M0 3.26476046C4.54732295 8.42512096 10.9310111 11.6352 18.0002 11.6352c7.0688913 0 13.4525949-3.2095786 17.9998-8.369587V0H0v3.26476046z"/>
  </defs>
  <g fill="none" fill-rule="evenodd">
    <path fill="#424549" d="M86.9868 26.9999c0 13.807-11.193 25-25 25-10.352 0-19.234-6.292-23.032-15.26-1.267-2.993-1.968-6.285-1.968-9.74 0-1.173.081-2.326.237-3.456 1.683-12.172 12.129-21.544 24.763-21.544 13.807 0 25 11.193 25 25"/>
    <path fill="#ABACAE" d="M61.9868 38.2522c-7.15 0-13-5.85-13-13v-4c0-7.15 5.85-13 13-13s13 5.85 13 13v4c0 7.15-5.85 13-13 13"/>
    <path stroke="#1E1F21" stroke-width="2" d="M61.9868 38.2522c-7.15 0-13-5.85-13-13v-4c0-7.15 5.85-13 13-13s13 5.85 13 13v4c0 7.15-5.85 13-13 13z" stroke-linecap="round" stroke-linejoin="round"/>
    <g transform="translate(44 42.365)">
      <mask id="b" fill="#fff">
        <use xlink:href="#a"/>
      </mask>
      <path fill="#ABACAE" d="M0 13.6352V9.9209143C0 4.7924143 4.477.6352 10 .6352h16c5.523 0 10 4.1572143 10 9.2857143V13.6352H0z" mask="url(#b)"/>
    </g>
    <g transform="translate(43 40.365)">
      <mask id="d" fill="#fff">
        <use xlink:href="#c"/>
      </mask>
      <path stroke="#1E1F21" stroke-width="2" d="M.9868 15v-3.8185143c0-5.2724136 4.477-9.5462857 10-9.5462857h16c5.523 0 10 4.2738721 10 9.5462857V15h-36z" stroke-linecap="round" stroke-linejoin="round" mask="url(#d)"/>
    </g>
    <path stroke="#1E1F21" stroke-width="2" d="M37.5281 32.1989c-.355-1.677-.541-3.416-.541-5.199 0-1.173.08-2.326.237-3.456 1.683-12.172 12.128-21.544 24.763-21.544 13.807 0 25 11.193 25 25s-11.193 25-25 25c-8.745 0-16.441-4.49-20.909-11.29m-2.123-3.9701c-.13-.306-.254-.616-.371-.928" stroke-linecap="round" stroke-linejoin="round"/>
    <path stroke="#C5D3FF" d="M24.5602 37.6239l-.833.833m-3.3336 3.3337l-.833.833m4.9996.0003l-.833-.833m-3.3336-3.3336l-.833-.833" stroke-linecap="round" stroke-linejoin="round"/>
    <path stroke="#7187DD" d="M105.5774 23.629c0 1.381-1.119 2.5-2.5 2.5s-2.5-1.119-2.5-2.5 1.119-2.5 2.5-2.5 2.5 1.119 2.5 2.5z" stroke-linecap="round" stroke-linejoin="round"/>
    <path stroke="#F4D862" d="M15.9454 23.206c0 1.105-.895 2-2 2s-2-.895-2-2 .895-2 2-2 2 .895 2 2z" stroke-linecap="round" stroke-linejoin="round"/>
    <path stroke="#3ba55c" d="M4 30.5726v5m2.5-2.5h-5" stroke-linecap="round" stroke-linejoin="round"/>
    <path stroke="#F4D862" d="M110.0774 10.587v4m2-2h-4" stroke-linecap="round" stroke-linejoin="round"/>
    <path fill="#3ba55c" d="M86.9868 11.9999c0 5.523-4.477 10-10 10s-10-4.477-10-10 4.477-10 10-10 10 4.477 10 10"/>
    <path stroke="#1E1F21" stroke-width="2" d="M66.9868 11.9999c0-1.381.28-2.696.786-3.892 1.518-3.59 5.072-6.108 9.214-6.108 5.523 0 10 4.477 10 10s-4.477 10-10 10c-4.07 0-7.572-2.431-9.133-5.92" stroke-linecap="round" stroke-linejoin="round"/>
    <path fill="#FFF" d="M78.4868 10.4999v-3c0-.276-.224-.5-.5-.5h-2c-.276 0-.5.224-.5.5v3h-3c-.276 0-.5.224-.5.5v2c0 .276.224.5.5.5h3v3c0 .276.224.5.5.5h2c.276 0 .5-.224.5-.5v-3h3c.276 0 .5-.224.5-.5v-2c0-.276-.224-.5-.5-.5h-3z"/>
    <path d="M0 0h114v54H0z"/>
  </g>
</svg>
