<?xml version="1.0" encoding="utf-8"?>
<!-- Generator: Adobe Illustrator 17.1.0, SVG Export Plug-In . SVG Version: 6.00 Build 0)  -->
<!DOCTYPE svg PUBLIC "-//W3C//DTD SVG 1.1//EN" "http://www.w3.org/Graphics/SVG/1.1/DTD/svg11.dtd">
<svg version="1.1" id="Layer_1" xmlns="http://www.w3.org/2000/svg" xmlns:xlink="http://www.w3.org/1999/xlink" x="0px" y="0px"
	 viewBox="0 0 512 512" enable-background="new 0 0 512 512" xml:space="preserve">
<g>
	<path fill="#FFFFFF" d="M395.7,272c-0.6-64.8,52.9-95.9,55.3-97.5c-30.1-44-76.9-50-93.6-50.7c-39.9-4-77.8,23.5-98,23.5
		c-20.2,0-51.4-22.9-84.5-22.3c-43.5,0.6-83.5,25.3-105.9,64.2c-45.2,78.3-11.6,194.4,32.4,258c21.5,31.1,47.1,66,80.8,64.8
		c32.4-1.3,44.7-21,83.9-21s50.2,21,84.5,20.3c34.9-0.6,57-31.7,78.3-62.9c24.7-36.1,34.9-71,35.5-72.8
		C463.7,375.3,396.4,349.5,395.7,272z"/>
	<path fill="#FFFFFF" d="M331.3,81.8C349.1,60.1,361.2,30,357.9,0c-25.7,1-56.9,17.1-75.4,38.8C265.9,58,251.4,88.6,255.3,118
		C284.1,120.2,313.4,103.4,331.3,81.8z"/>
</g>
</svg>
