<svg id="Layer_1" data-name="Layer 1" xmlns="http://www.w3.org/2000/svg" viewBox="0 0 48 48"><defs><style>.cls-1{fill:#f47fff;}.cls-2{fill:#83ddc5;}.cls-3{fill:none;stroke:#fff;stroke-linecap:round;stroke-miterlimit:10;stroke-width:2.66px;}.cls-4{fill:#fff;}</style></defs><circle class="cls-1" cx="24" cy="24" r="20"/><circle class="cls-2" cx="39.48" cy="8.52" r="8.52"/><line class="cls-3" x1="39.48" y1="4.48" x2="39.48" y2="12.24"/><line class="cls-3" x1="43.36" y1="8.36" x2="35.6" y2="8.36"/><path class="cls-4" d="M33,32.89c0-3.81-1.94-7.06-4.67-8.35A4.48,4.48,0,1,0,23.45,24a8.44,8.44,0,0,1-5.37-1.83,5.74,5.74,0,0,1-1.87-3.87,2.24,2.24,0,0,0-4.48,0A10.38,10.38,0,0,0,15,25.46a11.13,11.13,0,0,0,4.66,2.48,10.39,10.39,0,0,0-1.22,4.95Z"/></svg>